<?xml version="1.0" encoding="iso-8859-1"?>
<!-- Generator: Adobe Illustrator 19.0.0, SVG Export Plug-In . SVG Version: 6.00 Build 0)  -->
<svg version="1.1" id="Capa_1" xmlns="http://www.w3.org/2000/svg" xmlns:xlink="http://www.w3.org/1999/xlink" x="0px" y="0px"
	 viewBox="0 0 366.221 366.221" style="enable-background:new 0 0 366.221 366.221;" xml:space="preserve">
<g>
	<path style="fill:#FDF179;" d="M209.908,334.232c-2,0-3.6,0-5.6,0c-14-0.8-27.6-5.6-38.8-14.4c-9.6-7.2-16-17.6-18-29.2
		c-2.8-18,7.2-35.6,27.6-49.6l5.2-3.6l2,1.2c6.8,3.2,14.4,4.8,21.6,5.2c8,0,15.6-2.4,22-7.6c7.2-6,12-14.8,13.6-24s0.4-18.4-4-26.8
		l-0.4-0.4c-4.4-8-14-17.2-32.8-17.2h-1.6h-3.2l-0.8-3.2c-6.8-33.6,5.6-53.2,17.6-64l0.8-0.4c8.8-7.6,19.2-12.8,30.8-15.6
		c6.8-1.6,13.6-2.8,20.4-2.8h2.8c6.4,0,12.4,0.4,18.8,1.6c26,4.8,47.6,19.6,58.8,40.4c13.2,24,19.2,66.8-25.2,135.6
		C278.308,324.632,233.108,334.232,209.908,334.232z"/>
	<path style="fill:#FDF179;" d="M102.708,235.832c-35.2,0-57.2-12.4-69.6-22.8c-10.8-8.8-18.8-20.8-22.8-34.4
		c-3.6-11.2-2.4-23.6,2.8-34c8-15.2,25.2-23.6,48-23.6h3.6l6.4,0.4l1.2,2c11.2,20,25.2,24,35.2,24h1.2c9.6-0.4,18.4-4.4,25.2-10.8
		c6.8-6.4,11.2-15.2,12.8-24.4c1.2-9.6-1.2-23.2-17.6-34.4l-2.8-2l1.6-3.2c6-14.4,16.8-26.4,30-34.4c8.4-4.8,18.4-7.2,28-7.2h0.4
		c10,0,19.6,2,28.8,6c16.8,7.2,31.6,18.8,42.4,34l4,5.2l-6.4,0.8c-3.6,0.4-7.2,1.2-10.8,2c-6.8,1.6-13.6,4.4-19.6,7.6l-2.4,1.6
		l-1.6,1.2c-1.6,1.2-3.2,2-4.4,2.8c-22.8,16.4-31.2,43.2-24.8,75.2v0.4l-4,1.2l4-0.8l0.4,2l0.8,3.6c4,15.6,4.4,28,2,37.2l-0.4,2
		l-1.6,0.8c-2.8,1.2-5.6,2.4-8.4,3.6c-4,1.6-8.4,3.6-12.4,5.2C149.508,231.032,126.308,235.832,102.708,235.832L102.708,235.832z"/>
</g>
<g>
	<path style="fill:#F6996A;" d="M107.908,141.832c-6.8,0-16.8-2.4-26-14.4l-4.4-5.6l6.8-0.8c11.2-1.2,24.4-6.8,38-36l2-4.8l4,3.2
		c8.8,6.4,14,16.8,12.8,27.6c-1.2,8-4.8,15.6-10.8,21.2c-6,5.6-13.6,9.2-21.6,9.6H107.908z"/>
	<path style="fill:#F6996A;" d="M203.908,238.232c-4,0-8-0.8-11.6-1.6l-6.8-2l5.2-4.8c8.4-7.6,15.6-20,9.2-51.6l-1.2-5.2h5.2
		c10.8-0.4,21.2,5.2,26.8,14.4l0.4,0.4c4,7.2,5.2,15.6,3.6,23.6c-1.2,8-5.2,15.2-11.6,20.8
		C217.508,236.232,210.708,238.632,203.908,238.232L203.908,238.232z"/>
</g>
<path style="fill:#2D1E10;" d="M266.308,85.432L266.308,85.432c-6.8,0-13.6,1.2-20,2.8c-10.8,2.4-20.4,7.6-28.8,14.8l0,0l-0.4,0.4
	l0,0l0,0c-14.4,12.8-22,33.2-16.4,60.8c19.2-0.4,31.6,7.6,38.4,19.2l0.4,0.4c4.8,8.8,6.4,19.2,4.8,29.2
	c-1.6,10.4-7.2,19.6-15.2,26.4c-11.2,8.8-27.2,12-48,3.2l-0.8,0l-2.8,2c-20.8,14.4-28,30.8-25.6,45.6c2,10.8,8,20,16.4,26.8
	c10.4,8,23.2,12.8,36.4,13.2c33.2,2.4,76-16.4,113.2-73.2c38.8-59.6,40.8-103.2,25.2-131.6c-11.6-21.2-33.2-34-56.4-38.4
	C279.908,85.432,273.108,85.032,266.308,85.432z M85.108,125.032c7.2,9.6,16,13.2,24,12.8c7.2-0.4,14-3.6,19.2-8.4
	c5.2-4.8,8.8-11.6,9.6-18.8c0.8-9.6-3.6-18.4-11.2-24C112.708,115.832,98.708,123.432,85.108,125.032z M131.908,73.832
	c15.6,10.8,20.8,25.2,19.2,38.4c-1.2,10.4-6.4,19.6-14,26.8s-17.2,11.6-27.6,12c-14,0.4-29.2-6.8-40.4-26h-0.8h-3.2
	c-25.2-0.8-40.8,8-48,21.2c-4.8,9.6-5.6,20.8-2.8,31.2c3.6,12.8,11.2,24,21.6,32.4c25.2,21.6,70.8,32,134.4,8.4
	c4.4-1.6,8.4-3.2,12.4-4.8c2.8-1.2,5.6-2.4,8.4-3.6c2-8,2-19.2-2-35.2l0,0l-0.4-2l-0.4-1.6v-0.4l-0.4-1.6v-0.8l0,0v-0.4v-0.4
	c-8-37.2,4.4-63.6,26-79.2c1.6-1.2,2.8-2,4.4-3.2h0l0.4-0.4l0,0l1.2-0.8h0.4l0.4-0.4l2-1.2l0,0c6.4-3.6,13.2-6,20.4-8
	c3.6-0.8,7.6-1.6,11.2-2.4c-10.4-14.4-24.4-25.6-40.4-32.4c-8.8-2.8-18-4.8-27.6-4.8c-9.2,0-18,2.4-26,6.4
	C147.508,48.632,137.508,60.232,131.908,73.832L131.908,73.832z M117.108,74.632c0-0.4,0.4-0.4,0.4-0.8c9.2-21.6,22-36,36.8-44
	c10-5.2,21.2-8.4,32.4-8c11.2,0,22.4,2.4,32.8,6.4c21.2,8.8,38.8,24.4,50.8,44c6.4,0,13.2,0.8,19.6,2c26.8,5.2,52,20,65.6,45.2
	c17.6,32.4,16.4,80.8-25.6,145.2c-40.4,62-88,82-125.2,79.6c-16-0.8-31.2-6.4-44-16c-11.6-8.8-19.2-21.2-21.6-35.6
	c-2.8-19.6,6-41.2,31.6-58.8l2-1.2c-67.6,24.4-116.4,12-144.8-12c-12.4-10-21.2-24-25.6-39.2c-4-13.6-2.8-28.4,3.6-41.2
	c8.4-17.6,28.4-29.6,59.6-28.4h3.6C84.708,112.632,100.708,113.432,117.108,74.632L117.108,74.632z M203.908,177.432
	c6.4,31.2,0,45.6-10.4,55.6c11.6,3.2,20.8,1.2,26.8-4c5.6-4.8,8.8-11.2,10-18s0.4-14-3.2-20.4v-0.4
	C222.308,181.832,213.108,177.032,203.908,177.432L203.908,177.432z"/>
<g>
</g>
<g>
</g>
<g>
</g>
<g>
</g>
<g>
</g>
<g>
</g>
<g>
</g>
<g>
</g>
<g>
</g>
<g>
</g>
<g>
</g>
<g>
</g>
<g>
</g>
<g>
</g>
<g>
</g>
</svg>
