<?xml version="1.0" encoding="iso-8859-1"?>
<!-- Generator: Adobe Illustrator 19.0.0, SVG Export Plug-In . SVG Version: 6.00 Build 0)  -->
<svg version="1.1" id="Capa_1" xmlns="http://www.w3.org/2000/svg" xmlns:xlink="http://www.w3.org/1999/xlink" x="0px" y="0px"
	 viewBox="0 0 511.999 511.999" style="enable-background:new 0 0 511.999 511.999;" xml:space="preserve">
<path style="fill:#83CC8E;" d="M250.838,272.748c2.52-6.573,5.54-9.879,10.362-14.873V199.13
	c-5.226-5.602-9.824-11.798-13.683-18.477c-10.658,8.008-23.666,13.047-37.803,13.925v52.241c0,3.108-3.704,4.715-5.98,2.599
	c-12.343-11.472-24.947-20.949-34.171-27.066c-10.772,15.368-26.33,27.124-44.502,33.141c1.063,0.768,2.175,1.487,3.38,2.101
	c0.655,0.335,67.042,36.088,81.016,93.417c0.074,0.301,0.173,0.589,0.257,0.885V453.6c-0.625,10.277-0.977,20.958-0.988,32.11
	c-0.014,14.459,11.873,26.605,26.329,26.282c13.947-0.312,25.157-11.715,25.157-25.736c0-55.672,9.148-106.514,26.671-145.332
	C255.483,333.318,239.983,301.061,250.838,272.748z"/>
<path style="fill:#78C181;" d="M229.961,486.226c0.011-11.152,0.371-21.833,1.01-32.11V341.08c-0.086-0.296-0.187-0.583-0.262-0.885
	c-14.274-57.328-82.086-93.082-82.755-93.417c-0.786-0.392-1.523-0.836-2.242-1.299c-6.361,4.182-13.286,7.577-20.65,10.015
	c1.063,0.768,2.175,1.487,3.381,2.101c0.655,0.335,67.042,36.088,81.016,93.417c0.073,0.301,0.173,0.589,0.257,0.885v101.704
	c-0.625,10.277-0.977,20.958-0.988,32.11c-0.015,14.459,11.873,26.605,26.329,26.282c3.464-0.077,6.758-0.84,9.754-2.156
	C236.027,505.519,229.95,496.454,229.961,486.226z"/>
<path style="fill:#83CC8E;" d="M401.13,372.363c-8.809,2.468-21.347,7.342-35.414,16.957l18.197-46.007
	c-1.68-4.281-2.879-8.755-3.559-13.335c-7.718,2.117-16.092,2.058-24.177-0.574l-12.922,32.67
	c-4.79-10.963-10.406-20.041-14.821-26.378c-9.407,6.2-20.687,9.328-32.16,8.674c2.969,4.643,29.491,33.45,25.623,71.703
	c-25.939,65.581-30.218,74.785-30.218,74.785c-3.139,7.936,0.75,16.915,8.686,20.054s16.915-0.75,20.054-8.686
	c15.766-39.861,37.43-70.073,62.651-87.371c12.806-8.783,23.558-12.172,29.086-13.438
	C404.641,393.744,400.586,383.183,401.13,372.363z"/>
<path style="fill:#78C181;" d="M308.789,494.979c0,0,5.309-16.415,31.248-81.997c3.695-36.538-20.322-64.442-25.071-70.917
	c-5.978,1.858-12.304,2.669-18.691,2.305c2.969,4.643,29.491,33.45,25.623,71.703c-25.939,65.581-30.218,74.785-30.218,74.785
	c-3.139,7.936,0.75,16.915,8.686,20.054c3.767,1.49,7.763,1.381,11.264,0.022C307.876,506.714,306.569,500.591,308.789,494.979z"/>
<path style="fill:#30AA44;" d="M304.703,232.575c0.639,2.251,1.397,4.453,2.266,6.597c3.954,0.584,7.905,1.61,11.782,3.144
	c0.007,0.003,0.013,0.006,0.02,0.009c7.005-16.483,25.912-24.466,42.662-17.841l0.066,0.026c4.059,1.611,8.58,1.563,12.619-0.1
	c11.386-4.689,24.529-5.149,36.884-0.262c6.575,2.601,12.265,6.469,16.929,11.199c1.896-5.632,3.03-11.6,3.276-17.779
	c0.412-10.378-1.643-20.229-5.609-29.035c-1.629-3.615-1.469-7.771,0.3-11.32c6.743-13.527,10.56-28.766,10.585-44.901
	c0.086-54.654-43.914-99.955-98.55-101.383c-10.437-0.273-20.525,1.039-30.045,3.707c-5.135,1.439-10.689-0.195-14.056-4.33
	C278.779,11.817,255.85,0,230.148,0c-22.192,0-42.317,8.811-57.092,23.118c-5.208,5.042-12.12,7.79-19.369,7.774
	c-0.039,0-0.079,0-0.118,0c-29.996,0-54.673,22.313-55.442,52.122c-0.001,0.02-0.003,0.041-0.005,0.061c0,0.002,0,0.004,0,0.007
	c-0.048,0.87-0.669,1.585-1.54,1.603c-50.205,1.004-90.114,43.976-86.084,95.272c3.508,44.652,39.528,79.182,84.283,80.963
	c40.521,1.612,75.253-24.142,87.258-60.273c1.262-3.799,5.213-6.078,9.135-5.276c16.625,3.398,34.249,0.737,49.378-8.042
	c3.887-2.255,8.868-1.266,11.428,2.427c11.591,16.72,28.081,29.775,47.403,37.093C301.96,227.823,303.952,229.926,304.703,232.575z"
	/>
<path style="fill:#269E35;" d="M31.103,189.915c-4.03-51.296,35.879-94.267,86.084-95.272c0.872-0.017,1.492-0.732,1.54-1.602
	c0-0.003,0-0.005,0-0.007c0.002-0.02,0.004-0.041,0.005-0.061c0.769-29.809,25.446-52.122,55.442-52.122c0.039,0,0.078,0,0.118,0
	c7.249,0.016,14.161-2.732,19.369-7.774c14.775-14.306,34.9-23.118,57.092-23.118c8.728,0,17.134,1.366,25.023,3.89
	C262.729,5.104,247.038,0,230.148,0c-22.192,0-42.317,8.811-57.092,23.118c-5.208,5.042-12.12,7.79-19.369,7.774
	c-0.039,0-0.078,0-0.118,0c-29.996,0-54.673,22.313-55.442,52.122c-0.001,0.02-0.003,0.041-0.005,0.061
	c0,0.002-0.001,0.004-0.001,0.007c-0.048,0.871-0.669,1.585-1.54,1.602c-50.205,1.004-90.114,43.976-86.084,95.272
	c2.841,36.165,27.012,65.683,59.874,76.547C48.372,242.055,33.309,217.989,31.103,189.915z"/>
<path style="fill:#30AA44;" d="M464.544,264.736c-5.669-2.416-11.617-3.962-17.681-4.597c-3.063-0.321-5.617-2.345-6.507-5.157
	c-4.547-14.368-15.177-25.782-29.164-31.314c-12.082-4.778-25.35-4.672-37.361,0.302c-3.885,1.609-8.197,1.631-12.208,0.034
	c-15.503-6.133-32.589-0.166-41.008,13.609c-1.381,2.259-4.142,3.247-6.688,2.517c-26.844-7.695-55.609,6.676-65.101,33.8
	c-9.129,26.084,3.517,55.272,28.791,66.45c22.31,9.868,48.501,3.283,63.492-15.584c0.873-1.099,2.446-1.325,3.596-0.521
	c2.724,1.903,5.667,3.484,8.781,4.716c7.129,2.82,14.697,3.67,22.15,2.521c2.358-0.364,4.603,1.129,5.142,3.453
	c2.752,11.859,8.94,22.605,17.819,30.911c1.439,1.346,2.256,3.254,2.088,5.217c-1.954,22.867,16.213,42.423,38.942,42.423
	c15.153,0,29.652-8.862,36.044-23.317c2.46-5.565,3.581-11.445,3.331-17.477c-0.097-2.337,0.81-4.541,2.489-6.048
	c7.64-6.862,13.48-15.65,16.888-25.416C508.958,310.941,494.096,277.328,464.544,264.736z"/>
<path style="fill:#269E35;" d="M269.667,286.293c9.492-27.124,38.258-41.495,65.101-33.8c2.545,0.73,5.307-0.258,6.688-2.517
	c8.418-13.775,25.504-19.742,41.007-13.609c4.01,1.597,8.322,1.575,12.208-0.034c10.672-4.42,22.335-4.986,33.278-1.708
	c-4.721-4.685-10.385-8.436-16.757-10.957c-12.082-4.778-25.35-4.672-37.361,0.302c-3.885,1.609-8.197,1.631-12.208,0.034
	c-15.503-6.133-32.589-0.166-41.008,13.609c-1.38,2.259-4.142,3.247-6.688,2.517c-26.844-7.694-55.609,6.676-65.101,33.8
	c-9.129,26.084,3.517,55.272,28.791,66.45c1.836,0.812,3.701,1.502,5.581,2.094C268.543,328.35,262.628,306.403,269.667,286.293z"/>
<g>
</g>
<g>
</g>
<g>
</g>
<g>
</g>
<g>
</g>
<g>
</g>
<g>
</g>
<g>
</g>
<g>
</g>
<g>
</g>
<g>
</g>
<g>
</g>
<g>
</g>
<g>
</g>
<g>
</g>
</svg>
