<?xml version="1.0" encoding="iso-8859-1"?>
<!-- Generator: Adobe Illustrator 16.0.0, SVG Export Plug-In . SVG Version: 6.00 Build 0)  -->
<!DOCTYPE svg PUBLIC "-//W3C//DTD SVG 1.1//EN" "http://www.w3.org/Graphics/SVG/1.1/DTD/svg11.dtd">
<svg xmlns="http://www.w3.org/2000/svg" xmlns:xlink="http://www.w3.org/1999/xlink" version="1.1" id="Capa_1" x="0px" y="0px" width="512px" height="512px" viewBox="0 0 781.715 781.715" style="enable-background:new 0 0 781.715 781.715;" xml:space="preserve">
<g>
	<path d="M345.433,417.57c-6.367,9.165-10.16,20.245-10.16,32.252c0,3.337,0.428,6.589,0.985,9.787   c-64.209,22.928-110.358,84.162-110.358,156.163c0,91.496,74.439,165.942,165.947,165.942s165.948-74.446,165.948-165.942   c0-72.001-46.148-133.235-110.356-156.163c0.559-3.198,0.981-6.45,0.981-9.787c0-12.875-4.468-24.615-11.705-34.12   c31.355-37.772,102.315-113.5,210.543-173.99L694.34,92.814c0,0-248.54,78.923-273.942,308.418   c-8.402-4.957-18.08-7.995-28.554-7.995c-11.657,0-22.491,3.535-31.496,9.591C335.926,172.112,86.241,92.814,86.241,92.814   l47.082,148.898C243.34,303.199,314.904,380.484,345.433,417.57z M410.034,517.309v201.896H373.66v-114.09l-25.005,25.006   l-25.715-25.714L410.034,517.309z" fill="#ede31c"/>
	<path d="M385.835,92.814c103.293-3.304,166.135,27.72,185.558,39.087c24.295-15.22,65.605-37.066,124.081-54.132   c0,0-112.467-77.769-303.614-77.769C200.702,0,88.233,77.769,88.233,77.769c54.607,18.206,92.702,37.49,116.554,51.592   C228.287,116.536,289.398,89.719,385.835,92.814z" fill="#ede31c"/>
	<polygon points="545.531,150.071 545.427,150.108 545.472,150.122  " fill="#ede31c"/>
</g>
<g>
</g>
<g>
</g>
<g>
</g>
<g>
</g>
<g>
</g>
<g>
</g>
<g>
</g>
<g>
</g>
<g>
</g>
<g>
</g>
<g>
</g>
<g>
</g>
<g>
</g>
<g>
</g>
<g>
</g>
</svg>
